<svg width="87" height="87" viewBox="0 0 87 87" fill="none" xmlns="http://www.w3.org/2000/svg">
<circle cx="43.5" cy="43.5" r="43.5" fill="white"/>
<path d="M38.5663 6.61348L39.6596 8.12435L40.0509 8.08065L39.8708 6.46782L40.701 6.37513L41.1631 10.5139L39.6096 10.6874C39.2894 10.7232 39.0102 10.6963 38.7721 10.6068C38.5344 10.5213 38.3494 10.3879 38.2171 10.2065C38.0813 10.0296 38.0001 9.82252 37.9736 9.58534C37.9432 9.31258 37.9947 9.05669 38.1281 8.81766C38.2619 8.58259 38.4803 8.40611 38.7834 8.28823L37.6058 6.72074L38.5663 6.61348ZM40.1204 8.70326L39.4267 8.78072C39.2014 8.80588 39.0393 8.878 38.9406 8.99709C38.8422 9.12014 38.8039 9.27851 38.8255 9.47221C38.8467 9.66195 38.9184 9.80204 39.0405 9.89245C39.1631 9.98683 39.3371 10.0214 39.5624 9.99628L40.2562 9.91881L40.1204 8.70326Z" fill="#2D3235"/>
<path d="M35.0458 11.5226L34.3298 9.04659C34.2513 8.7753 34.1204 8.5875 33.937 8.48318C33.7548 8.38269 33.5356 8.36946 33.2796 8.4435C33.0198 8.51864 32.8396 8.64734 32.7391 8.8296C32.6398 9.01569 32.6293 9.24438 32.7078 9.51567L33.4238 11.9917L32.6156 12.2254L31.9013 9.75511C31.8029 9.41504 31.794 9.105 31.8745 8.825C31.9523 8.54993 32.0983 8.31726 32.3124 8.12698C32.5227 7.93781 32.7787 7.79957 33.0806 7.71228C33.3786 7.62609 33.6671 7.60686 33.9459 7.65459C34.2208 7.70343 34.4627 7.82394 34.6715 8.01614C34.8814 8.21216 35.0355 8.4802 35.1338 8.82027L35.8482 11.2906L35.0458 11.5226Z" fill="#2D3235"/>
<path d="M29.482 13.5283L27.7745 9.72985L28.5363 9.38737L30.2438 13.1858L29.482 13.5283Z" fill="#2D3235"/>
<path d="M18.9075 15.4498L19.5596 14.9278L22.8221 15.9771L21.0362 13.7459L21.6883 13.2239L24.2944 16.4799L23.6423 17.0019L20.3761 15.9479L22.1657 18.1837L21.5136 18.7057L18.9075 15.4498Z" fill="#2D3235"/>
<path d="M18.5312 20.743L17.75 20.0502L16.8197 21.0992L16.3242 20.6598L17.2545 19.6108L16.4287 18.8784L15.3796 20.0613L14.8707 19.61L16.474 17.8022L19.5943 20.5693L17.991 22.3772L17.4821 21.9259L18.5312 20.743Z" fill="#2D3235"/>
<path d="M14.8848 26.8089L14.3161 26.4469L14.9121 25.5107L11.9678 23.6363L12.4164 22.9317L15.3607 24.8061L15.9566 23.87L16.5254 24.2321L14.8848 26.8089Z" fill="#2D3235"/>
<path d="M9.04508 29.2187C9.19355 28.8583 9.41448 28.5621 9.70788 28.3302C10.0013 28.0983 10.3333 27.9555 10.7039 27.9017C11.0782 27.8493 11.4548 27.9012 11.8336 28.0573C12.2087 28.2118 12.5089 28.4387 12.7341 28.7379C12.9629 29.0387 13.0998 29.3747 13.1448 29.7459C13.1897 30.1172 13.138 30.4831 12.9895 30.8435C12.8395 31.2076 12.6186 31.5037 12.3267 31.732C12.0333 31.9638 11.7002 32.1041 11.3274 32.1527C10.9568 32.2066 10.5839 32.1562 10.2088 32.0017C9.82999 31.8456 9.52615 31.6172 9.29729 31.3165C9.07059 31.0209 8.93476 30.6875 8.88981 30.3162C8.84486 29.945 8.89662 29.5791 9.04508 29.2187ZM9.73467 29.5028C9.63923 29.7345 9.60663 29.9598 9.6369 30.1787C9.67083 30.3992 9.76481 30.5992 9.91883 30.7788C10.0729 30.9584 10.2786 31.1012 10.536 31.2073C10.7935 31.3133 11.0383 31.3561 11.2704 31.3356C11.5062 31.3166 11.712 31.24 11.8877 31.1059C12.0634 30.9718 12.199 30.7889 12.2944 30.5572C12.3899 30.3255 12.4232 30.0983 12.3945 29.8757C12.3642 29.6567 12.2721 29.4574 12.118 29.2778C11.9677 29.0998 11.7638 28.9577 11.5064 28.8517C11.2489 28.7456 11.0023 28.7021 10.7664 28.7211C10.5306 28.7401 10.323 28.8159 10.1436 28.9485C9.96644 29.0863 9.83011 29.2711 9.73467 29.5028Z" fill="#2D3235"/>
<path d="M7.71959 38.9539C7.73778 38.8039 7.79006 38.67 7.87645 38.5522C7.96679 38.435 8.07968 38.3465 8.21513 38.2867C8.3501 38.231 8.49261 38.2122 8.64266 38.2304C8.79666 38.249 8.93254 38.3016 9.05028 38.3879C9.16755 38.4783 9.25407 38.5909 9.30983 38.7259C9.36955 38.8614 9.39031 39.0041 9.37213 39.1542C9.35347 39.3082 9.29897 39.4438 9.20863 39.5611C9.12177 39.6828 9.01085 39.7715 8.87587 39.8273C8.74042 39.887 8.5957 39.9075 8.4417 39.8888C8.29165 39.8706 8.15799 39.8164 8.04072 39.7261C7.92298 39.6397 7.83449 39.5268 7.77525 39.3874C7.71949 39.2524 7.70093 39.1079 7.71959 38.9539Z" fill="#2D3235"/>
<path d="M10.9121 48.9217L10.2438 49.0104L10.0153 47.2893L8.95665 47.4298L9.13169 48.7488L8.47518 48.8359L8.30013 47.517L6.55535 47.7485L6.44545 46.9205L10.5738 46.3726L10.9121 48.9217Z" fill="#2D3235"/>
<path d="M8.02888 54.55L9.32054 53.2048L9.20775 52.8276L7.65289 53.2924L7.41363 52.4921L11.4037 51.2992L11.8514 52.7969C11.9437 53.1056 11.9671 53.3851 11.9215 53.6353C11.8797 53.8845 11.7814 54.0903 11.6266 54.2528C11.4767 54.418 11.2875 54.5348 11.0588 54.6032C10.7958 54.6818 10.5349 54.6768 10.2759 54.5881C10.0207 54.4984 9.80811 54.3149 9.63807 54.0378L8.30574 55.4761L8.02888 54.55ZM9.80797 52.6481L10.0079 53.3169C10.0729 53.5342 10.1727 53.6807 10.3075 53.7567C10.4461 53.8315 10.6088 53.841 10.7955 53.7851C10.9785 53.7305 11.1035 53.6349 11.1707 53.4986C11.2417 53.3611 11.2447 53.1838 11.1798 52.9666L10.9798 52.2978L9.80797 52.6481Z" fill="#2D3235"/>
<path d="M10.2157 60.0072C10.0403 59.6591 9.96095 59.2982 9.9776 58.9246C9.99425 58.551 10.1035 58.2065 10.3053 57.891C10.5107 57.5737 10.7963 57.3229 11.1622 57.1386C11.5245 56.9561 11.8925 56.8775 12.2661 56.9031C12.6433 56.9268 12.987 57.0432 13.2972 57.2522C13.6073 57.4611 13.8501 57.7397 14.0255 58.0878C14.2027 58.4394 14.282 58.8003 14.2636 59.1704C14.2469 59.544 14.135 59.8876 13.9279 60.2013C13.726 60.5168 13.444 60.7658 13.0816 60.9484C12.7158 61.1327 12.3442 61.213 11.967 61.1892C11.5952 61.1672 11.2542 61.0518 10.944 60.8428C10.6339 60.6339 10.3911 60.3553 10.2157 60.0072ZM10.8818 59.6716C10.9945 59.8954 11.1436 60.0675 11.3289 60.1879C11.5178 60.3065 11.7306 60.3664 11.9672 60.3674C12.2038 60.3685 12.4464 60.3064 12.6951 60.1811C12.9437 60.0558 13.1362 59.8987 13.2726 59.7097C13.4126 59.5189 13.4893 59.3132 13.5029 59.0926C13.5164 58.872 13.4669 58.6498 13.3541 58.426C13.2414 58.2022 13.0914 58.0284 12.9042 57.9044C12.7189 57.784 12.5079 57.7233 12.2713 57.7222C12.0383 57.7194 11.7974 57.7806 11.5488 57.9059C11.3001 58.0312 11.1058 58.1892 10.9659 58.3799C10.8259 58.5707 10.7474 58.7773 10.7303 58.9997C10.7185 59.2239 10.769 59.4478 10.8818 59.6716Z" fill="#2D3235"/>
<path d="M14.9388 67.1646L14.4302 66.502L15.5458 63.2616L13.2787 65.0017L12.7701 64.339L16.0784 61.7998L16.587 62.4624L15.4668 65.7064L17.7386 63.9627L18.2472 64.6253L14.9388 67.1646Z" fill="#2D3235"/>
<path d="M22.1404 68.4897L21.6858 68.9876L20.8663 68.2394L18.5129 70.8169L17.896 70.2537L20.2494 67.6761L19.4299 66.9279L19.8845 66.43L22.1404 68.4897Z" fill="#2D3235"/>
<path d="M27.5508 72.9288L27.0726 73.857L28.3191 74.4991L28.0158 75.0878L26.7693 74.4457L26.2638 75.4269L27.6694 76.151L27.3579 76.7557L25.2098 75.649L27.1197 71.9416L29.2678 73.0482L28.9563 73.6528L27.5508 72.9288Z" fill="#2D3235"/>
<path d="M33.7366 79.1275L32.9399 78.8764L31.9954 75.5821L31.1361 78.3077L30.3394 78.0566L31.5934 74.0791L32.39 74.3302L33.3328 77.6302L34.1938 74.8989L34.9905 75.15L33.7366 79.1275Z" fill="#2D3235"/>
<path d="M38.989 75.904C39.4235 75.9552 39.7947 76.0852 40.1025 76.2937C40.4143 76.5027 40.6404 76.7757 40.7809 77.1127C40.9258 77.4462 40.9737 77.8203 40.9248 78.2351C40.8759 78.6499 40.7421 79.0026 40.5236 79.2932C40.3095 79.5803 40.0265 79.7893 39.6746 79.92C39.3267 80.0511 38.9355 80.0911 38.501 80.0398L37.0552 79.8692L37.5432 75.7334L38.989 75.904ZM38.5546 79.3312C38.9891 79.3825 39.3388 79.3036 39.6038 79.0946C39.8688 78.8855 40.0267 78.5657 40.0775 78.1351C40.1283 77.7046 40.0494 77.3548 39.8408 77.0859C39.6327 76.813 39.3114 76.6509 38.8769 76.5997L38.2903 76.5304L37.968 79.262L38.5546 79.3312Z" fill="#2D3235"/>
<path d="M48.7018 78.7862C48.5524 78.8092 48.4093 78.7949 48.2727 78.7435C48.1354 78.6882 48.0197 78.6034 47.9256 78.4891C47.8355 78.3742 47.7789 78.242 47.756 78.0926C47.7324 77.9393 47.7463 77.7943 47.7977 77.6576C47.853 77.5203 47.9381 77.4066 48.053 77.3165C48.1674 77.2224 48.2992 77.1639 48.4486 77.1409C48.6019 77.1173 48.7472 77.1332 48.8845 77.1885C49.0251 77.2393 49.1405 77.3222 49.2306 77.4371C49.3247 77.5514 49.3835 77.6852 49.4071 77.8385C49.4301 77.9879 49.4139 78.1313 49.3586 78.2686C49.3072 78.4053 49.2224 78.5209 49.1041 78.6156C48.9892 78.7057 48.8551 78.7626 48.7018 78.7862Z" fill="#2D3235"/>
<path d="M56.3594 73.4873C56.7584 73.3078 57.1435 73.2283 57.5148 73.2488C57.8897 73.2676 58.224 73.3854 58.5178 73.6022C58.8136 73.8136 59.0472 74.1098 59.2186 74.4907C59.39 74.8715 59.4567 75.2428 59.4188 75.6044C59.3829 75.9608 59.2477 76.2855 59.0132 76.5786C58.7823 76.87 58.4674 77.1055 58.0684 77.2851L56.7408 77.8825L55.0318 74.0847L56.3594 73.4873ZM57.7498 76.6499C58.1488 76.4703 58.4082 76.2228 58.5279 75.9072C58.6476 75.5916 58.6185 75.2361 58.4405 74.8408C58.2626 74.4454 58.0151 74.1861 57.6979 74.0627C57.379 73.9358 57.0201 73.9621 56.6211 74.1416L56.0825 74.384L57.2112 76.8922L57.7498 76.6499Z" fill="#2D3235"/>
<path d="M61.6742 71.3894L62.2579 72.2552L63.4205 71.4715L63.7906 72.0206L62.6281 72.8043L63.245 73.7196L64.5561 72.8358L64.9363 73.3998L62.9326 74.7505L60.6014 71.2924L62.605 69.9417L62.9852 70.5056L61.6742 71.3894Z" fill="#2D3235"/>
<path d="M68.5706 70.4519C68.3585 70.6502 68.1328 70.7931 67.8934 70.8808C67.657 70.9657 67.4255 70.986 67.1991 70.9418C66.9726 70.8976 66.771 70.7838 66.5943 70.6006L67.248 69.9894C67.3736 70.1062 67.5095 70.1643 67.6559 70.1636C67.8051 70.1602 67.9495 70.0933 68.089 69.9629C68.2313 69.8298 68.312 69.6918 68.3309 69.5489C68.347 69.4031 68.3035 69.275 68.2003 69.1646C68.1161 69.0745 68.0192 69.0262 67.9097 69.0197C67.8001 69.0132 67.6883 69.0334 67.5742 69.0802C67.4602 69.1214 67.3116 69.1895 67.1283 69.2847C66.8763 69.4113 66.6621 69.5054 66.4856 69.5669C66.3092 69.6229 66.123 69.6363 65.927 69.6072C65.7312 69.5725 65.5436 69.4592 65.3644 69.2675C65.1959 69.0873 65.0943 68.8883 65.0594 68.6704C65.0246 68.4526 65.0559 68.2327 65.1534 68.0109C65.2482 67.7861 65.4002 67.5759 65.6094 67.3804C65.9232 67.087 66.2495 66.9263 66.5881 66.8983C66.927 66.8647 67.2342 66.975 67.5099 67.2291L66.8387 67.8566C66.7351 67.7574 66.6099 67.7138 66.4632 67.7257C66.3166 67.732 66.1751 67.799 66.0385 67.9267C65.9194 68.0381 65.852 68.1582 65.8364 68.2871C65.8237 68.4134 65.8717 68.5346 65.9803 68.6508C66.0564 68.7322 66.1464 68.776 66.2503 68.7823C66.3544 68.783 66.462 68.7641 66.573 68.7256C66.6842 68.6815 66.8329 68.6134 67.0189 68.5212C67.2708 68.3946 67.4864 68.3019 67.6657 68.2432C67.8449 68.1845 68.0339 68.1712 68.2327 68.2032C68.4314 68.2353 68.619 68.3457 68.7956 68.5346C68.9477 68.6973 69.0468 68.8878 69.0929 69.106C69.1391 69.3243 69.1202 69.5516 69.0362 69.7879C68.9495 70.0214 68.7943 70.2427 68.5706 70.4519Z" fill="#2D3235"/>
<path d="M69.5079 64.2631L70.3324 64.9037L71.1926 63.7964L71.7156 64.2027L70.8554 65.31L71.727 65.9872L72.697 64.7386L73.2342 65.1559L71.7517 67.0641L68.4583 64.5054L69.9408 62.5972L70.4779 63.0145L69.5079 64.2631Z" fill="#2D3235"/>
<path d="M76.7386 59.322L76.3453 60.0589L72.9335 60.382L75.4549 61.7275L75.0617 62.4645L71.3823 60.501L71.7755 59.7641L75.1926 59.4437L72.6659 58.0955L73.0592 57.3585L76.7386 59.322Z" fill="#2D3235"/>
<path d="M75.2317 51.3692L78.7369 54.0877L78.4293 55.0542L73.9976 55.2466L74.2691 54.3938L77.7719 54.3065L74.9621 52.2163L75.2317 51.3692Z" fill="#2D3235"/>
<path d="M80.0783 47.991C80.0292 48.3777 79.8935 48.7214 79.6709 49.0219C79.4484 49.3225 79.1653 49.5472 78.8217 49.6961C78.4741 49.8445 78.0971 49.893 77.6907 49.8415C77.2882 49.7905 76.9391 49.65 76.6435 49.4201C76.3439 49.1896 76.1239 48.9011 75.9834 48.5546C75.8429 48.208 75.7971 47.8413 75.8461 47.4546C75.8957 47.064 76.0314 46.7203 76.2535 46.4237C76.476 46.1231 76.7608 45.9006 77.1079 45.7562C77.4515 45.6073 77.8246 45.5583 78.2271 45.6094C78.6335 45.6609 78.9865 45.8018 79.2861 46.0323C79.5822 46.2582 79.8005 46.5445 79.941 46.8911C80.0815 47.2377 80.1273 47.6043 80.0783 47.991ZM79.3384 47.8972C79.3699 47.6487 79.3424 47.4226 79.2559 47.2192C79.1655 47.0153 79.0225 46.8468 78.8268 46.7138C78.6312 46.5807 78.3953 46.4967 78.119 46.4617C77.8428 46.4267 77.5954 46.4494 77.3767 46.53C77.154 46.61 76.9754 46.7377 76.841 46.9131C76.7065 47.0885 76.6235 47.3006 76.5919 47.5492C76.5604 47.7978 76.5877 48.0257 76.6737 48.2331C76.7601 48.4365 76.9012 48.6047 77.0968 48.7378C77.2885 48.8703 77.5225 48.9541 77.7987 48.9891C78.0749 49.0241 78.3243 49.0016 78.547 48.9216C78.7696 48.8416 78.9502 48.7141 79.0886 48.5392C79.2236 48.3598 79.3069 48.1458 79.3384 47.8972Z" fill="#2D3235"/>
<path d="M79.6509 42.1818L79.5983 40.8105L80.26 40.7851L80.3447 42.9911L76.1832 43.1508L76.1512 42.3161L79.6509 42.1818Z" fill="#2D3235"/>
<path d="M75.1354 34.9214L79.5183 35.6045L79.7167 36.5992L75.9315 38.9119L75.7564 38.0342L78.7796 36.2629L75.3093 35.7933L75.1354 34.9214Z" fill="#2D3235"/>
<path d="M74.1775 32.069L78.1066 30.6885L78.3835 31.4766L74.4544 32.8571L74.1775 32.069Z" fill="#2D3235"/>
<path d="M71.1606 25.7648L74.8224 23.7812L75.2202 24.5156L72.8385 25.8058L75.7516 25.4967L76.0529 26.0528L74.2054 28.3292L76.5871 27.039L76.985 27.7735L73.3232 29.7571L72.8713 28.923L74.9632 26.2834L71.6096 26.5937L71.1606 25.7648Z" fill="#2D3235"/>
<path d="M69.7014 22.645L70.5142 21.9897L69.6342 20.8981L70.1498 20.4824L71.0298 21.574L71.8891 20.8812L70.8968 19.6503L71.4263 19.2234L72.9429 21.1046L69.6961 23.7222L68.1795 21.841L68.709 21.4141L69.7014 22.645Z" fill="#2D3235"/>
<path d="M66.5534 14.4739L67.1803 15.0259L66.7111 18.4207L68.5998 16.2758L69.2267 16.8279L66.4705 19.9578L65.8436 19.4058L66.3168 16.0065L64.4242 18.1559L63.7973 17.6039L66.5534 14.4739Z" fill="#2D3235"/>
<path d="M59.2313 14.5623L59.5813 13.986L60.5298 14.5621L62.3416 11.5788L63.0556 12.0124L61.2438 14.9957L62.1923 15.5717L61.8423 16.148L59.2313 14.5623Z" fill="#2D3235"/>
<path d="M56.6992 8.77458C57.0627 8.9154 57.3635 9.13002 57.6015 9.41846C57.8395 9.7069 57.9894 10.0358 58.051 10.4052C58.1112 10.7783 58.0673 11.1559 57.9193 11.5379C57.7728 11.9162 57.5523 12.2211 57.2579 12.4526C56.962 12.6877 56.629 12.8317 56.2587 12.8845C55.8885 12.9373 55.5216 12.8933 55.1582 12.7525C54.791 12.6102 54.4902 12.3956 54.2559 12.1086C54.0178 11.8202 53.8706 11.4901 53.8141 11.1184C53.7524 10.749 53.7949 10.3752 53.9414 9.99685C54.0894 9.61483 54.3114 9.30623 54.6072 9.07107C54.8979 8.83817 55.2284 8.69533 55.5986 8.64254C55.9689 8.58975 56.3357 8.63377 56.6992 8.77458ZM56.4298 9.47002C56.1961 9.37949 55.9702 9.35167 55.7519 9.38655C55.5322 9.42514 55.3342 9.52333 55.1579 9.68111C54.9816 9.83889 54.8432 10.0476 54.7426 10.3072C54.642 10.5669 54.6044 10.8125 54.6299 11.0442C54.6538 11.2795 54.7347 11.4836 54.8725 11.6565C55.0103 11.8293 55.1961 11.9609 55.4297 12.0515C55.6634 12.142 55.8912 12.1705 56.1132 12.1371C56.3315 12.1022 56.5287 12.0059 56.705 11.8481C56.8799 11.694 57.0176 11.4872 57.1182 11.2276C57.2188 10.9679 57.2571 10.7204 57.2331 10.485C57.2091 10.2497 57.1289 10.0437 56.9926 9.86719C56.8511 9.69293 56.6635 9.56054 56.4298 9.47002Z" fill="#2D3235"/>
<path d="M46.938 7.6543C47.0884 7.66931 47.2234 7.71875 47.343 7.80263C47.4621 7.89047 47.553 8.00147 47.6155 8.13563C47.6741 8.26939 47.6959 8.41147 47.6809 8.56188C47.6655 8.71624 47.6159 8.85319 47.532 8.97273C47.4442 9.09188 47.3334 9.18076 47.1996 9.23937C47.0654 9.30193 46.9232 9.32571 46.7728 9.3107C46.6184 9.2953 46.4816 9.24368 46.3625 9.15584C46.239 9.07156 46.1479 8.96254 46.0893 8.82878C46.0268 8.69462 46.0032 8.55036 46.0186 8.396C46.0336 8.2456 46.085 8.11083 46.1729 7.99168C46.2567 7.87213 46.3677 7.78127 46.5058 7.71911C46.6396 7.6605 46.7837 7.6389 46.938 7.6543Z" fill="#2D3235"/>
</svg>
