<svg width="15" height="13" viewBox="0 0 15 13" fill="none" xmlns="http://www.w3.org/2000/svg">
<path d="M11.9352 4.3446C11.7875 4.29539 11.6398 4.2489 11.4922 4.20515C11.5168 4.10398 11.5387 4.00281 11.5605 3.90164C11.8969 2.27195 11.6754 0.962183 10.9289 0.530151C10.2098 0.117261 9.03672 0.546557 7.85 1.58015C7.73242 1.68132 7.61758 1.78796 7.5082 1.8946C7.43437 1.82351 7.35781 1.75242 7.28125 1.68406C6.03711 0.57937 4.79023 0.114526 4.04375 0.549292C3.32734 0.964917 3.11406 2.19812 3.41484 3.74031C3.44492 3.89343 3.47773 4.04382 3.51602 4.19695C3.34102 4.24617 3.16875 4.30085 3.00742 4.35828C1.54727 4.86414 0.5 5.66257 0.5 6.48835C0.5 7.34148 1.61563 8.19734 3.1332 8.71687C3.25625 8.75789 3.3793 8.7989 3.50508 8.83445C3.46406 8.99851 3.42852 9.15984 3.3957 9.32664C3.10859 10.8442 3.33281 12.0473 4.04922 12.4602C4.7875 12.8868 6.02891 12.4493 7.2375 11.3911C7.3332 11.3063 7.42891 11.2188 7.52461 11.1259C7.64492 11.2434 7.7707 11.3555 7.89648 11.4649C9.0668 12.4712 10.2234 12.8786 10.9371 12.4657C11.6754 12.0391 11.916 10.7458 11.6043 9.17078C11.5797 9.05046 11.5523 8.92742 11.5223 8.80164C11.6098 8.77703 11.6945 8.74968 11.7793 8.72234C13.357 8.20007 14.5 7.35515 14.5 6.48835C14.5 5.65984 13.4227 4.85593 11.9352 4.3446ZM8.23555 2.02312C9.25273 1.13718 10.2016 0.789917 10.6336 1.03874C11.0957 1.30398 11.2734 2.37585 10.9836 3.78406C10.9645 3.87703 10.9453 3.96726 10.9207 4.05749C10.3137 3.92078 9.69844 3.82234 9.08047 3.76765C8.725 3.25906 8.33672 2.77234 7.91563 2.3157C8.02227 2.21453 8.12617 2.11882 8.23555 2.02312ZM5.07188 7.90749C5.21133 8.14539 5.35352 8.38328 5.50391 8.6157C5.07734 8.56921 4.65352 8.50085 4.23516 8.41062C4.35547 8.01687 4.50586 7.60945 4.68086 7.19382C4.80664 7.43445 4.93516 7.67234 5.07188 7.90749ZM4.24336 4.61804C4.63711 4.53054 5.05547 4.45945 5.49023 4.40476C5.34531 4.63171 5.20312 4.86414 5.06914 5.09929C4.93516 5.33171 4.80391 5.5696 4.68086 5.81023C4.50859 5.40281 4.36367 5.00359 4.24336 4.61804ZM4.99258 6.50203C5.17305 6.12468 5.36992 5.75554 5.57773 5.39187C5.78555 5.0282 6.00977 4.67546 6.24492 4.3282C6.65508 4.29812 7.07344 4.28171 7.5 4.28171C7.92656 4.28171 8.34766 4.29812 8.75508 4.3282C8.9875 4.67273 9.20898 5.02546 9.41953 5.3864C9.63008 5.74734 9.82695 6.11648 10.0129 6.49109C9.82969 6.86843 9.63281 7.24031 9.42227 7.60671C9.21445 7.97039 8.99297 8.32312 8.76055 8.67312C8.35313 8.7032 7.9293 8.71687 7.5 8.71687C7.0707 8.71687 6.65508 8.7032 6.25312 8.67859C6.01523 8.33132 5.79102 7.97585 5.58047 7.61218C5.36992 7.24851 5.17578 6.87937 4.99258 6.50203ZM9.93086 7.90203C10.0703 7.6614 10.2016 7.41804 10.3301 7.17195C10.5051 7.56843 10.6582 7.97039 10.7922 8.38328C10.3684 8.47898 9.93906 8.55281 9.50703 8.60203C9.65469 8.37234 9.79414 8.13718 9.93086 7.90203ZM10.3246 5.81023C10.1961 5.5696 10.0648 5.32898 9.92812 5.09382C9.79414 4.8614 9.65469 4.63171 9.50977 4.40476C9.95 4.45945 10.3711 4.53328 10.7648 4.62351C10.6391 5.0282 10.4914 5.42195 10.3246 5.81023ZM7.50547 2.73406C7.79258 3.04578 8.06328 3.3739 8.31484 3.71296C7.77344 3.68835 7.2293 3.68835 6.68789 3.71296C6.95586 3.36023 7.23203 3.0321 7.50547 2.73406ZM4.33359 1.05789C4.79297 0.789917 5.81289 1.17273 6.8875 2.12429C6.95586 2.18445 7.02422 2.25007 7.09531 2.3157C6.67148 2.77234 6.28047 3.25906 5.92227 3.76765C5.3043 3.82234 4.6918 3.91804 4.08477 4.05203C4.04922 3.91257 4.01914 3.77039 3.98906 3.6282C3.73203 2.30476 3.90156 1.30671 4.33359 1.05789ZM3.66367 8.2657C3.54883 8.23289 3.43672 8.19734 3.32461 8.15906C2.74219 7.97585 2.08047 7.68601 1.60195 7.30593C1.32578 7.11453 1.13984 6.81921 1.08789 6.48835C1.08789 5.98796 1.95195 5.34812 3.19883 4.91335C3.35469 4.85867 3.51328 4.80945 3.67188 4.76296C3.85781 5.35632 4.08203 5.93875 4.3418 6.50203C4.0793 7.07351 3.85234 7.66414 3.66367 8.2657ZM6.85195 10.9454C6.40078 11.3583 5.87852 11.6864 5.30977 11.9106C5.00625 12.0555 4.65625 12.0692 4.34453 11.9462C3.90977 11.6946 3.7293 10.7294 3.97539 9.43054C4.00547 9.27742 4.03828 9.12429 4.07656 8.9739C4.68906 9.10515 5.30703 9.19538 5.9332 9.24187C6.29414 9.7532 6.69062 10.2427 7.11445 10.702C7.02695 10.7868 6.93945 10.8688 6.85195 10.9454ZM7.52187 10.2809C7.24297 9.98015 6.96406 9.64656 6.69336 9.28835C6.95586 9.29929 7.22656 9.30476 7.5 9.30476C7.78164 9.30476 8.05781 9.29929 8.33125 9.28562C8.07969 9.63288 7.80898 9.96374 7.52187 10.2809ZM11.0957 11.1012C11.0711 11.4348 10.907 11.7466 10.6445 11.9571C10.2098 12.2087 9.28281 11.8805 8.28203 11.0219C8.16719 10.9235 8.05234 10.8169 7.93477 10.7075C8.35312 10.2454 8.73867 9.75593 9.08867 9.24187C9.71484 9.18992 10.3383 9.09421 10.9535 8.95476C10.9809 9.06687 11.0055 9.17898 11.0273 9.28835C11.1613 9.87898 11.1832 10.4942 11.0957 11.1012ZM11.5934 8.16179C11.5168 8.1864 11.4402 8.21101 11.3609 8.23289C11.1695 7.63679 10.9344 7.05437 10.6637 6.48835C10.9262 5.93054 11.1477 5.35632 11.3336 4.76843C11.4758 4.80945 11.6125 4.8532 11.7438 4.89695C13.018 5.33445 13.9121 5.98523 13.9121 6.48289C13.9121 7.01882 12.9578 7.71062 11.5934 8.16179ZM7.5 7.75164C8.1918 7.75164 8.75234 7.19109 8.75234 6.49929C8.75234 5.80749 8.1918 5.24695 7.5 5.24695C6.8082 5.24695 6.24766 5.80749 6.24766 6.49929C6.24766 7.19109 6.8082 7.75164 7.5 7.75164Z" fill="black"/>
</svg>
